<?xml version="1.0" encoding="utf-8"?>
<!-- Generator: Adobe Illustrator 15.1.0, SVG Export Plug-In . SVG Version: 6.00 Build 0)  -->
<!DOCTYPE svg PUBLIC "-//W3C//DTD SVG 1.1//EN" "http://www.w3.org/Graphics/SVG/1.1/DTD/svg11.dtd">
<svg version="1.1" id="Layer_1" xmlns="http://www.w3.org/2000/svg" xmlns:xlink="http://www.w3.org/1999/xlink" x="0px" y="0px"
	 width="150px" height="38px" viewBox="0 0 150 38" enable-background="new 0 0 150 38" xml:space="preserve">
<g>
	<g>
		<path fill="#A3977E" d="M2.313,23.493c0-2.904,0-3.425-0.037-4.021c-0.037-0.634-0.186-0.932-0.8-1.062
			c-0.149-0.037-0.466-0.056-0.633-0.056c-0.074,0-0.149-0.037-0.149-0.112c0-0.111,0.093-0.148,0.298-0.148
			c0.838,0,2.011,0.056,2.104,0.056c0.224,0,1.396-0.056,2.513-0.056c1.843,0,5.25-0.168,7.465,2.122
			c0.931,0.968,1.806,2.514,1.806,4.729c0,2.346-0.968,4.151-2.011,5.25c-0.8,0.837-2.476,2.141-5.641,2.141
			c-0.8,0-1.787-0.056-2.587-0.112c-0.819-0.056-1.452-0.111-1.545-0.111c-0.037,0-0.354,0-0.744,0.019
			c-0.373,0-0.801,0.037-1.08,0.037c-0.205,0-0.298-0.037-0.298-0.148c0-0.057,0.037-0.112,0.149-0.112
			c0.167,0,0.391-0.037,0.559-0.074c0.373-0.074,0.465-0.484,0.54-1.023c0.093-0.782,0.093-2.253,0.093-4.04V23.493z M3.877,25.504
			c0,1.973,0.019,3.686,0.037,4.039c0.019,0.466,0.056,1.21,0.205,1.415c0.242,0.354,0.968,0.745,3.165,0.745
			c1.731,0,3.332-0.633,4.43-1.731c0.968-0.949,1.489-2.736,1.489-4.449c0-2.364-1.023-3.891-1.787-4.691
			c-1.75-1.843-3.872-2.104-6.087-2.104c-0.373,0-1.062,0.056-1.21,0.13c-0.167,0.075-0.223,0.168-0.223,0.373
			c-0.019,0.633-0.019,2.531-0.019,3.965V25.504z"/>
		<path fill="#A3977E" d="M24.598,17.834c4.188,0,7.316,2.644,7.316,6.98c0,4.17-2.941,7.614-7.428,7.614
			c-5.101,0-7.223-3.965-7.223-7.315C17.263,22.097,19.46,17.834,24.598,17.834z M24.989,31.722c1.675,0,5.138-0.969,5.138-6.386
			c0-4.468-2.718-6.869-5.659-6.869c-3.108,0-5.436,2.048-5.436,6.125C19.032,28.929,21.638,31.722,24.989,31.722z"/>
		<path fill="#A3977E" d="M45.263,27.421c0-1.508-0.093-1.712-0.838-1.917c-0.149-0.037-0.465-0.056-0.633-0.056
			c-0.075,0-0.149-0.038-0.149-0.112c0-0.111,0.093-0.148,0.298-0.148c0.837,0,2.01,0.056,2.104,0.056
			c0.093,0,1.266-0.056,1.824-0.056c0.205,0,0.298,0.037,0.298,0.148c0,0.074-0.074,0.112-0.149,0.112
			c-0.13,0-0.242,0.019-0.465,0.056c-0.502,0.093-0.651,0.409-0.689,1.061c-0.037,0.596-0.037,1.154-0.037,1.937v2.085
			c0,0.838-0.019,0.875-0.242,1.005c-1.191,0.633-2.867,0.838-3.947,0.838c-1.415,0-4.058-0.187-6.125-1.992
			c-1.136-0.986-2.215-2.979-2.215-5.305c0-2.979,1.452-5.083,3.109-6.125c1.675-1.042,3.519-1.173,4.952-1.173
			c1.173,0,2.495,0.242,2.848,0.316c0.391,0.093,1.042,0.168,1.508,0.187c0.187,0.019,0.224,0.093,0.224,0.167
			c0,0.261-0.13,0.782-0.13,2.644c0,0.298-0.037,0.392-0.167,0.392c-0.093,0-0.112-0.112-0.13-0.279
			c-0.019-0.261-0.112-0.782-0.391-1.229c-0.465-0.707-1.973-1.508-4.375-1.508c-1.173,0-2.569,0.112-3.984,1.229
			c-1.08,0.855-1.843,2.55-1.843,4.728c0,2.625,1.322,4.524,1.973,5.157c1.471,1.434,3.165,1.991,4.877,1.991
			c0.67,0,1.638-0.111,2.122-0.391c0.242-0.13,0.373-0.335,0.373-0.651V27.421z"/>
		<path fill="#A3977E" d="M51.135,26.962c0-1.735,0-2.047-0.022-2.402c-0.022-0.379-0.111-0.557-0.479-0.634
			c-0.089-0.022-0.278-0.034-0.378-0.034c-0.044,0-0.089-0.021-0.089-0.066c0-0.066,0.056-0.089,0.178-0.089
			c0.256,0,0.556,0,0.801,0.011l0.456,0.022c0.223,0.011,2.48,0,2.736-0.011c0.211-0.012,0.389-0.012,0.489-0.045
			c0.067-0.022,0.111-0.066,0.156-0.066s0.067,0.044,0.067,0.1c0,0.078-0.056,0.212-0.089,0.523
			c-0.011,0.111-0.034,0.601-0.056,0.733c-0.011,0.056-0.033,0.123-0.089,0.123s-0.078-0.056-0.078-0.134
			c0-0.089-0.033-0.278-0.1-0.423s-0.323-0.345-0.756-0.355l-1.713-0.034c-0.067,0-0.1,0.034-0.1,0.123v3.07
			c0,0.066,0.011,0.1,0.078,0.1l1.424-0.011c0.189,0,0.345,0,0.5-0.012c0.267-0.021,0.412-0.056,0.512-0.2
			c0.044-0.056,0.078-0.111,0.123-0.111s0.056,0.034,0.056,0.09c0,0.066-0.056,0.255-0.089,0.622
			c-0.022,0.223-0.045,0.668-0.045,0.746c0,0.1,0,0.211-0.078,0.211c-0.056,0-0.078-0.045-0.078-0.101
			c-0.011-0.11-0.022-0.267-0.066-0.4c-0.056-0.155-0.234-0.355-0.579-0.4c-0.278-0.033-1.491-0.033-1.68-0.033
			c-0.056,0-0.078,0.022-0.078,0.101v0.945c0,1.067,0,1.946,0.056,2.414c0.033,0.322,0.1,0.567,0.434,0.611
			c0.156,0.022,0.4,0.045,0.5,0.045c0.067,0,0.089,0.033,0.089,0.066c0,0.056-0.055,0.089-0.178,0.089
			c-0.612,0-1.313-0.033-1.368-0.033s-0.756,0.033-1.09,0.033c-0.122,0-0.178-0.022-0.178-0.089c0-0.033,0.022-0.066,0.089-0.066
			c0.1,0,0.233-0.022,0.333-0.045c0.223-0.044,0.278-0.289,0.323-0.611c0.056-0.468,0.056-1.347,0.056-2.414V26.962z"/>
		<path fill="#A3977E" d="M60.832,23.58c2.503,0,4.372,1.58,4.372,4.172c0,2.491-1.758,4.55-4.438,4.55
			c-3.048,0-4.316-2.37-4.316-4.372C56.449,26.128,57.761,23.58,60.832,23.58z M61.065,31.879c1.001,0,3.07-0.579,3.07-3.815
			c0-2.67-1.624-4.104-3.382-4.104c-1.857,0-3.248,1.224-3.248,3.659C57.505,30.21,59.063,31.879,61.065,31.879z"/>
		<path fill="#A3977E" d="M67.557,26.962c0-1.735,0-2.047-0.022-2.402c-0.022-0.379-0.111-0.557-0.479-0.634
			c-0.089-0.022-0.278-0.034-0.378-0.034c-0.044,0-0.089-0.021-0.089-0.066c0-0.066,0.056-0.089,0.178-0.089
			c0.5,0,1.201,0.033,1.257,0.033c0.122,0,0.968-0.033,1.313-0.033c0.701,0,1.446,0.066,2.036,0.489
			c0.278,0.2,0.768,0.745,0.768,1.513c0,0.823-0.345,1.646-1.346,2.569c0.912,1.168,1.669,2.158,2.314,2.848
			c0.601,0.635,1.079,0.757,1.357,0.802c0.211,0.033,0.367,0.033,0.434,0.033c0.056,0,0.1,0.033,0.1,0.066
			c0,0.066-0.067,0.089-0.267,0.089h-0.79c-0.623,0-0.901-0.056-1.19-0.211c-0.479-0.256-0.868-0.801-1.502-1.636
			c-0.467-0.611-0.99-1.356-1.212-1.646c-0.044-0.045-0.078-0.067-0.145-0.067l-1.368-0.022c-0.056,0-0.078,0.034-0.078,0.09v0.267
			c0,1.067,0,1.946,0.055,2.414c0.034,0.322,0.1,0.567,0.434,0.611c0.156,0.022,0.4,0.045,0.5,0.045
			c0.067,0,0.089,0.033,0.089,0.066c0,0.056-0.056,0.089-0.178,0.089c-0.612,0-1.313-0.033-1.368-0.033
			c-0.011,0-0.712,0.033-1.046,0.033c-0.122,0-0.178-0.022-0.178-0.089c0-0.033,0.022-0.066,0.089-0.066
			c0.1,0,0.233-0.022,0.333-0.045c0.223-0.044,0.278-0.289,0.323-0.611c0.056-0.468,0.056-1.347,0.056-2.414V26.962z M68.447,27.93
			c0,0.056,0.022,0.101,0.078,0.134c0.167,0.1,0.679,0.178,1.168,0.178c0.267,0,0.579-0.033,0.834-0.211
			c0.389-0.268,0.678-0.868,0.678-1.714c0-1.39-0.734-2.225-1.924-2.225c-0.333,0-0.634,0.034-0.745,0.067
			c-0.056,0.021-0.089,0.066-0.089,0.133V27.93z"/>
		<path fill="#A3977E" d="M76.083,31.926c-0.261-0.13-0.28-0.204-0.28-0.707c0-0.931,0.074-1.676,0.094-1.974
			c0.019-0.204,0.056-0.298,0.149-0.298c0.111,0,0.13,0.057,0.13,0.205c0,0.168,0,0.428,0.057,0.688
			c0.279,1.378,1.508,1.899,2.755,1.899c1.787,0,2.662-1.285,2.662-2.477c0-1.284-0.54-2.028-2.141-3.351l-0.838-0.688
			c-1.974-1.62-2.42-2.773-2.42-4.04c0-1.991,1.489-3.351,3.854-3.351c0.726,0,1.266,0.074,1.73,0.187
			c0.354,0.074,0.503,0.093,0.652,0.093c0.148,0,0.186,0.037,0.186,0.13c0,0.094-0.074,0.708-0.074,1.974
			c0,0.298-0.037,0.428-0.13,0.428c-0.112,0-0.131-0.093-0.149-0.241c-0.019-0.224-0.13-0.727-0.242-0.931
			c-0.111-0.205-0.614-0.987-2.327-0.987c-1.284,0-2.289,0.801-2.289,2.159c0,1.062,0.483,1.731,2.271,3.128l0.521,0.409
			c2.197,1.731,2.718,2.886,2.718,4.375c0,0.764-0.298,2.178-1.582,3.09c-0.801,0.559-1.806,0.782-2.812,0.782
			C77.703,32.429,76.847,32.299,76.083,31.926z"/>
		<path fill="#A3977E" d="M99.13,26.77c0,1.787,0,3.258,0.093,4.04c0.056,0.539,0.168,0.949,0.727,1.023
			c0.261,0.037,0.67,0.074,0.837,0.074c0.112,0,0.149,0.056,0.149,0.112c0,0.093-0.093,0.148-0.298,0.148
			c-1.023,0-2.196-0.056-2.29-0.056c-0.093,0-1.266,0.056-1.824,0.056c-0.205,0-0.298-0.037-0.298-0.148
			c0-0.057,0.037-0.112,0.149-0.112c0.167,0,0.391-0.037,0.558-0.074c0.373-0.074,0.466-0.484,0.54-1.023
			c0.094-0.782,0.094-2.253,0.094-4.04v-1.955c0-0.074-0.057-0.111-0.112-0.111h-7.893c-0.056,0-0.112,0.019-0.112,0.111v1.955
			c0,1.787,0,3.258,0.094,4.04c0.056,0.539,0.167,0.949,0.726,1.023c0.261,0.037,0.67,0.074,0.838,0.074
			c0.111,0,0.148,0.056,0.148,0.112c0,0.093-0.093,0.148-0.298,0.148c-1.023,0-2.196-0.056-2.289-0.056
			c-0.094,0-1.267,0.056-1.824,0.056c-0.205,0-0.298-0.037-0.298-0.148c0-0.057,0.037-0.112,0.148-0.112
			c0.168,0,0.391-0.037,0.559-0.074c0.372-0.074,0.466-0.484,0.54-1.023c0.093-0.782,0.093-2.253,0.093-4.04v-3.276
			c0-2.904,0-3.425-0.037-4.021c-0.037-0.634-0.187-0.932-0.801-1.062c-0.148-0.037-0.465-0.056-0.633-0.056
			c-0.074,0-0.148-0.037-0.148-0.112c0-0.111,0.093-0.148,0.298-0.148c0.837,0,2.01,0.056,2.104,0.056
			c0.093,0,1.266-0.056,1.824-0.056c0.205,0,0.298,0.037,0.298,0.148c0,0.075-0.074,0.112-0.149,0.112
			c-0.13,0-0.241,0.019-0.465,0.056c-0.503,0.093-0.651,0.409-0.688,1.062c-0.038,0.596-0.038,1.116-0.038,4.021v0.391
			c0,0.094,0.057,0.112,0.112,0.112h7.893c0.056,0,0.112-0.019,0.112-0.112v-0.391c0-2.904,0-3.425-0.038-4.021
			c-0.037-0.634-0.186-0.932-0.8-1.062c-0.149-0.037-0.466-0.056-0.633-0.056c-0.075,0-0.149-0.037-0.149-0.112
			c0-0.111,0.094-0.148,0.298-0.148c0.838,0,2.011,0.056,2.104,0.056c0.094,0,1.267-0.056,1.824-0.056
			c0.205,0,0.298,0.037,0.298,0.148c0,0.075-0.074,0.112-0.148,0.112c-0.131,0-0.242,0.019-0.466,0.056
			c-0.502,0.093-0.651,0.409-0.688,1.062c-0.037,0.596-0.037,1.116-0.037,4.021V26.77z"/>
		<path fill="#A3977E" d="M110.506,17.834c4.188,0,7.315,2.644,7.315,6.98c0,4.17-2.941,7.614-7.428,7.614
			c-5.101,0-7.223-3.965-7.223-7.315C103.171,22.097,105.367,17.834,110.506,17.834z M110.896,31.722
			c1.676,0,5.138-0.969,5.138-6.386c0-4.468-2.718-6.869-5.659-6.869c-3.108,0-5.436,2.048-5.436,6.125
			C104.939,28.929,107.546,31.722,110.896,31.722z"/>
		<path fill="#A3977E" d="M133.776,29.6h0.074c0.503-1.713,2.216-7.111,2.867-9.494c0.186-0.689,0.204-0.949,0.204-1.191
			c0-0.335-0.204-0.559-1.061-0.559c-0.093,0-0.168-0.056-0.168-0.131c0-0.093,0.094-0.13,0.316-0.13
			c0.95,0,1.731,0.056,1.899,0.056c0.13,0,0.931-0.056,1.508-0.056c0.167,0,0.261,0.037,0.261,0.111
			c0,0.094-0.056,0.149-0.168,0.149c-0.074,0-0.428,0.019-0.633,0.093c-0.559,0.205-0.856,0.986-1.21,2.011
			c-0.819,2.364-2.699,8.284-3.426,10.369c-0.483,1.377-0.576,1.601-0.781,1.601c-0.187,0-0.298-0.242-0.559-0.968l-3.648-10.351
			h-0.037c-0.671,1.787-3.221,8.601-3.891,10.332c-0.299,0.781-0.392,0.986-0.615,0.986c-0.186,0-0.279-0.205-0.651-1.471
			l-3.313-11.039c-0.298-0.986-0.54-1.266-1.023-1.452c-0.242-0.093-0.708-0.111-0.838-0.111c-0.093,0-0.168-0.019-0.168-0.131
			c0-0.093,0.112-0.13,0.298-0.13c0.969,0,1.992,0.056,2.197,0.056c0.167,0,0.986-0.056,1.917-0.056c0.261,0,0.335,0.056,0.335,0.13
			c0,0.112-0.093,0.131-0.186,0.131c-0.149,0-0.503,0-0.727,0.111c-0.111,0.056-0.242,0.205-0.242,0.447s0.168,0.894,0.354,1.712
			c0.279,1.191,2.215,8.023,2.494,9.011h0.037l3.946-10.611c0.279-0.764,0.354-0.856,0.466-0.856c0.13,0,0.242,0.242,0.465,0.875
			L133.776,29.6z"/>
	</g>
	<g>
		<rect x="55.014" y="18.837" fill="#A3977E" width="14.259" height="1.143"/>
		<path fill="#A3977E" d="M69.273,18.173H55.014l-1.76-8.031c0,0,2.19,5.79,4.851,5.79c2.663,0,4.038-12.197,4.038-12.197
			s1.183,12.138,3.768,12.229c2.816,0.1,4.764-5.822,4.764-5.822L69.273,18.173z"/>
		<circle fill="#A3977E" cx="53.253" cy="10.083" r="0.872"/>
		<circle fill="#A3977E" cx="62.142" cy="3.734" r="0.872"/>
		<path fill="#A3977E" d="M71.544,10.083c0,0.481-0.39,0.872-0.871,0.872c-0.485,0-0.875-0.39-0.875-0.872
			c0-0.483,0.389-0.872,0.875-0.872C71.154,9.211,71.544,9.6,71.544,10.083z"/>
	</g>
</g>
<g>
	<circle fill="none" stroke="#A3977E" stroke-miterlimit="10" cx="144.896" cy="11.322" r="4.31"/>
	<g>
		<path fill="#A3977E" d="M142.953,13.709V8.787h2.183c0.438,0,0.772,0.044,1.001,0.132c0.228,0.088,0.41,0.245,0.547,0.469
			c0.137,0.224,0.205,0.471,0.205,0.742c0,0.349-0.113,0.644-0.339,0.883c-0.227,0.24-0.576,0.392-1.048,0.457
			c0.172,0.083,0.303,0.165,0.393,0.245c0.19,0.174,0.37,0.393,0.541,0.655l0.855,1.34h-0.819l-0.651-1.024
			c-0.19-0.295-0.347-0.521-0.47-0.678s-0.233-0.266-0.331-0.329c-0.098-0.063-0.196-0.106-0.297-0.131
			c-0.074-0.016-0.195-0.023-0.363-0.023h-0.755v2.186H142.953z M143.604,10.959h1.4c0.298,0,0.53-0.031,0.698-0.092
			s0.296-0.16,0.383-0.295s0.131-0.283,0.131-0.441c0-0.233-0.084-0.424-0.254-0.574c-0.169-0.15-0.436-0.225-0.801-0.225h-1.558
			V10.959z"/>
	</g>
</g>
</svg>
